<?xml version="1.0" encoding="UTF-8" standalone="no" ?>
<!DOCTYPE svg PUBLIC "-//W3C//DTD SVG 1.1//EN" "http://www.w3.org/Graphics/SVG/1.1/DTD/svg11.dtd">
<svg xmlns="http://www.w3.org/2000/svg" xmlns:xlink="http://www.w3.org/1999/xlink" version="1.1" width="300" height="300" viewBox="0 0 300 300" xml:space="preserve">
<desc>Created with Fabric.js 5.3.0</desc>
<defs>
</defs>
<g transform="matrix(0.3085923252 0 0 0.3085923252 201.8306649644 143.8435814588)" id="sHBZYGKHEpk9tLz81HIr-"  >
<g style=""   >
		<g transform="matrix(1 0 0 1 0 -16.889)" id="fQm9dljeEdaJBoqm65YkW"  >
<path style="stroke: none; stroke-width: 1; stroke-dasharray: none; stroke-linecap: butt; stroke-dashoffset: 0; stroke-linejoin: miter; stroke-miterlimit: 4; fill: rgb(74,197,218); fill-rule: nonzero; opacity: 1;"  transform=" translate(-299.999346559, -283.111)" d="M 319.23 495.864 L 423.093 566.222 L 108.153 566.222 L 108.153 286.32 L 215.36599999999999 378.599 C 215.36599999999999 378.599 309.178 257.984 218.71599999999998 113.91499999999996 L 453.246 0 C 540.357 180.923 473.35 412.104 319.23 495.864 z" stroke-linecap="round" />
</g>
		<g transform="matrix(1 0 0 1 -0.1759776801 0)" id="4mYBjUM5jbFpLi56FbbxY"  >
<path style="stroke: none; stroke-width: 1; stroke-dasharray: none; stroke-linecap: butt; stroke-dashoffset: 0; stroke-linejoin: miter; stroke-miterlimit: 4; fill: rgb(147,83,176); fill-rule: nonzero; opacity: 1;"  transform=" translate(-299.823368879, -300)" d="M 491.484 189.507 C 491.846 107.914 482.17 60.071 453.246 0 L 218.717 113.915 L 218.717 147.692 C 243.953 187.883 254.83800000000002 226.24400000000003 257.42900000000003 260.674 C 252.11200000000002 331.349 215.36600000000004 378.599 215.36600000000004 378.599 L 108.153 286.32 L 108.153 600 L 423.094 600 L 423.094 566.223 L 342.539 511.65599999999995 C 438.57 444.657 490.887 324.263 491.484 189.507 z M 372.139 435.364 C 369.467 432.46799999999996 365.645 430.655 361.35200000000003 430.649 C 353.163 430.637 346.627 437.148 346.61600000000004 445.33 C 346.61000000000007 449.039 347.95200000000006 452.4 350.17300000000006 454.978 C 345.38400000000007 458.821 340.4870000000001 462.47700000000003 335.49300000000005 465.952 L 335.49300000000005 465.952 C 333.54200000000003 464.837 331.3020000000001 464.179 328.92500000000007 464.142 C 321.2710000000001 464.025 314.88400000000007 470.308 314.87700000000007 477.961 C 314.87700000000007 478.272 314.8980000000001 478.576 314.91900000000004 478.882 C 313.665 479.591 312.41900000000004 480.314 311.153 481.00100000000003 L 286.726 494.27500000000003 L 293.02 498.54 L 293.02 498.54 C 287.56899999999996 499.86 283.67199999999997 504.642 283.666 510.571 C 283.659 517.547 289.013 522.962 295.972 523.015 C 303.114 523.071 308.602 517.553 308.518 510.405 C 308.512 509.917 308.47299999999996 509.43899999999996 308.414 508.96799999999996 L 308.414 508.96799999999996 L 309.74199999999996 509.86699999999996 L 367.96099999999996 549.305 L 338.30099999999993 549.305 C 339.41399999999993 547.572 340.08199999999994 545.5319999999999 340.10999999999996 543.343 C 340.18399999999997 537.0989999999999 335.08899999999994 531.8789999999999 328.84599999999995 531.805 C 322.602 531.7299999999999 317.3829999999999 536.8249999999999 317.30699999999996 543.068 C 317.28 545.352 317.95199999999994 547.497 319.10999999999996 549.305 L 272.65899999999993 549.305 C 273.85999999999996 547.512 274.55099999999993 545.358 274.51599999999996 543.0569999999999 C 274.424 537.0949999999999 269.59399999999994 532.2609999999999 263.631 532.1639999999999 C 257.544 532.0659999999999 252.46999999999997 537.0439999999999 252.43499999999997 543.1499999999999 C 252.42199999999997 545.4189999999999 253.11199999999997 547.5369999999998 254.29399999999998 549.3039999999999 L 206.01299999999998 549.3039999999999 C 207.26199999999997 547.7099999999998 208.02899999999997 545.7149999999998 208.08399999999997 543.5049999999999 C 208.22099999999998 537.9979999999999 204.07799999999997 533.5489999999999 198.64499999999998 533.3649999999999 C 192.969 533.1739999999999 188.44699999999997 537.4729999999998 188.40099999999998 543.1059999999999 C 188.38199999999998 545.4649999999999 189.15399999999997 547.6119999999999 190.469 549.3029999999999 L 137.84 549.3029999999999 C 139.612 547.8889999999999 140.77700000000002 545.7259999999999 140.814 543.3119999999999 C 140.88 539.0539999999999 137.39 535.4659999999999 133.119 535.3999999999999 C 128.861 535.3349999999998 125.273 538.8239999999998 125.207 543.0949999999999 C 125.16799999999999 545.5859999999999 126.353 547.8409999999999 128.19299999999998 549.3029999999999 L 125.06899999999999 549.3029999999999 L 125.06899999999999 484.8769999999999 C 126.97999999999999 487.0649999999999 129.76 488.4819999999999 132.843 488.5329999999999 C 138.65599999999998 488.6289999999999 143.535 483.8539999999999 143.572 478.0339999999999 C 143.61 472.2179999999999 138.79 467.38599999999985 132.972 467.4059999999999 C 129.835 467.4179999999999 127.00500000000001 468.8459999999999 125.06800000000001 471.0639999999999 L 125.06800000000001 422.1199999999999 C 127.174 423.9019999999999 129.90400000000002 424.9759999999999 132.92100000000002 424.9939999999999 C 139.67800000000003 425.03399999999993 145.13400000000001 419.7449999999999 145.26600000000002 413.0279999999999 C 145.40200000000002 406.0889999999999 140.002 400.5199999999999 133.097 400.4789999999999 C 130.023 400.46099999999996 127.22500000000001 401.5539999999999 125.06800000000001 403.37499999999994 L 125.06800000000001 358.05899999999997 C 127.23700000000001 359.678 129.936 360.64399999999995 132.91600000000003 360.65999999999997 C 140.32700000000003 360.698 146.12500000000003 354.981 146.16400000000002 347.597 C 146.203 340.186 140.485 334.387 133.10100000000003 334.349 C 130.05000000000004 334.33299999999997 127.28200000000002 335.304 125.06700000000002 336.953 L 125.06700000000002 323.19199999999995 L 204.33100000000002 391.41499999999996 L 217.805 403.01099999999997 L 224.577 394.30299999999994 L 224.577 394.30299999999994 C 226.495 395.15099999999995 228.614 395.62899999999996 230.852 395.62999999999994 C 239.445 395.63199999999995 246.365 388.71599999999995 246.36700000000002 380.12499999999994 C 246.36800000000002 375.71599999999995 244.53900000000002 371.756 241.60500000000002 368.9359999999999 C 243.836 364.9869999999999 246.222 360.4989999999999 248.66000000000003 355.50499999999994 C 251.57900000000004 360.80199999999996 257.238 364.45399999999995 263.567 364.4049999999999 C 272.76800000000003 364.3329999999999 280.446 356.56999999999994 280.37600000000003 347.4099999999999 C 280.30400000000003 338.2099999999999 272.54100000000005 330.5309999999999 263.38100000000003 330.6019999999999 C 261.88100000000003 330.6139999999999 260.43 330.8479999999999 259.03900000000004 331.24099999999993 L 259.03900000000004 331.24099999999993 C 262.07800000000003 323.02399999999994 264.93500000000006 314.0559999999999 267.36600000000004 304.41399999999993 C 267.838 302.5419999999999 268.28800000000007 300.6689999999999 268.71600000000007 298.7939999999999 C 275.7440000000001 296.6359999999999 280.73100000000005 290.2389999999999 280.7850000000001 282.42299999999994 C 280.8260000000001 276.518 278.0640000000001 271.38999999999993 273.72800000000007 268.24299999999994 L 273.72800000000007 268.24299999999994 C 275.0420000000001 255.25599999999994 275.31700000000006 242.25199999999995 274.54100000000005 229.29899999999992 C 277.845 226.3329999999999 279.90600000000006 222.03199999999993 279.92600000000004 217.12599999999992 C 279.951 210.77699999999993 276.55600000000004 205.34699999999992 271.4440000000001 202.56799999999993 C 269.3520000000001 190.48299999999992 266.33400000000006 178.4819999999999 262.39900000000006 166.60099999999994 C 262.6460000000001 166.61699999999993 262.88900000000007 166.64599999999993 263.13900000000007 166.65099999999995 C 271.44700000000006 166.79499999999996 278.0830000000001 160.53599999999994 278.31300000000005 152.34299999999996 C 278.55000000000007 143.85399999999996 272.18600000000004 137.10199999999998 263.81000000000006 136.95699999999997 C 259.3690000000001 136.87999999999997 255.41600000000005 138.64599999999996 252.65300000000005 141.54699999999997 L 252.65300000000005 141.54699999999997 C 249.59100000000004 134.69299999999996 246.23600000000005 127.88399999999997 242.55400000000006 121.13499999999996 L 315.59600000000006 85.65799999999996 C 315.57500000000005 85.99299999999995 315.55100000000004 86.32799999999996 315.55300000000005 86.66999999999996 C 315.59400000000005 94.05199999999996 321.39700000000005 99.76699999999995 328.8090000000001 99.72499999999997 C 336.19000000000005 99.68399999999997 341.9050000000001 93.88199999999996 341.8640000000001 86.46999999999997 C 341.8390000000001 81.90999999999997 339.61000000000007 77.99099999999997 336.1670000000001 75.66699999999997 L 336.1670000000001 75.66699999999997 L 357.50700000000006 65.30199999999998 L 357.50700000000006 65.30199999999998 C 358.6770000000001 65.71199999999997 359.9170000000001 65.95099999999998 361.20000000000005 65.96899999999998 C 366.31100000000004 66.03799999999998 370.862 62.63199999999998 372.595 57.97399999999998 L 445.01500000000004 22.798999999999985 C 452.23400000000004 39.76999999999998 458.15400000000005 57.295999999999985 462.77900000000005 75.28699999999998 L 462.77900000000005 75.28699999999998 C 461.60300000000007 74.90899999999998 460.35100000000006 74.70299999999997 459.05000000000007 74.71899999999998 C 452.4800000000001 74.79899999999998 447.1790000000001 80.25799999999998 447.3230000000001 86.79699999999998 C 447.46600000000007 93.21799999999999 452.6840000000001 98.37199999999999 459.0960000000001 98.42199999999998 C 462.2720000000001 98.44699999999999 465.1680000000001 97.19099999999999 467.3170000000001 95.14999999999998 L 467.3170000000001 95.14999999999998 C 470.4670000000001 110.87899999999998 472.6610000000001 126.92999999999998 473.8600000000001 143.26099999999997 C 475.5380000000001 166.08399999999997 475.26800000000014 188.87699999999995 473.0750000000001 211.48599999999996 C 470.8930000000001 205.90399999999997 465.5030000000001 202.04699999999997 459.0690000000001 202.08899999999997 C 450.7060000000001 202.14399999999998 444.17300000000006 208.77199999999996 444.2270000000001 217.14299999999997 C 444.2820000000001 225.50599999999997 450.9090000000001 232.039 459.2800000000001 231.98499999999999 C 464.3660000000001 231.951 468.7660000000001 229.47799999999998 471.4280000000001 225.66899999999998 C 469.5650000000001 239.65699999999998 466.9610000000001 253.55999999999997 463.6190000000001 267.34299999999996 C 462.2170000000001 266.936 460.7340000000001 266.70899999999995 459.1890000000001 266.70799999999997 C 450.3690000000001 266.702 443.4960000000001 273.69599999999997 443.6110000000001 282.561 C 443.7050000000001 289.709 448.5130000000001 295.551 455.1150000000001 297.291 L 455.1150000000001 297.291 C 447.35900000000015 320.939 437.3940000000001 343.649 425.55400000000014 364.661 L 425.55400000000014 364.661 C 417.42700000000013 365.175 411.03400000000016 371.885 411.0480000000001 380.151 C 411.0500000000001 382.32800000000003 411.5030000000001 384.39300000000003 412.3100000000001 386.267 L 412.3100000000001 386.267 C 409.5460000000001 390.426 406.7120000000001 394.507 403.7960000000001 398.485 C 403.40300000000013 399.02000000000004 402.9990000000001 399.538 402.6030000000001 400.07 L 402.6030000000001 400.07 C 400.1250000000001 398.352 397.1440000000001 397.332 393.96000000000015 397.327 C 385.4950000000002 397.314 378.41500000000013 404.468 378.53000000000014 412.919 C 378.58900000000017 417.12399999999997 380.39900000000017 420.96099999999996 383.2450000000001 423.73199999999997 L 383.2450000000001 423.73199999999997 C 379.623 427.741 375.92 431.616 372.139 435.364 z M 376.629 282.218 C 376.656 272.50800000000004 384.27500000000003 264.938 393.99800000000005 264.964 C 403.70700000000005 264.989 411.27700000000004 272.61 411.25200000000007 282.33299999999997 C 411.2270000000001 292.042 403.60600000000005 299.61199999999997 393.88300000000004 299.587 C 384.174 299.561 376.604 291.941 376.629 282.218 z M 345.891 217.034 C 345.89500000000004 226.69299999999998 338.20500000000004 234.301 328.514 234.226 C 319.04900000000004 234.153 311.528 226.549 311.526 217.051 C 311.522 207.392 319.212 199.785 328.903 199.85999999999999 C 338.367 199.932 345.889 207.536 345.891 217.034 z M 379.146 249.85 C 379.017 259.602 370.72 267.678 361.031 267.481 C 351.26300000000003 267.282 343.24 258.943 343.504 249.264 C 343.766 239.642 351.85 231.77700000000002 361.41400000000004 231.836 C 371.158 231.896 379.275 240.143 379.146 249.85 z M 310.148 282.162 C 310.23600000000005 271.974 318.93300000000005 263.474 329.02500000000003 263.717 C 339.103 263.959 347.35100000000006 272.40299999999996 347.26500000000004 282.389 C 347.17900000000003 292.577 338.482 301.077 328.39000000000004 300.83500000000004 C 318.313 300.592 310.064 292.148 310.148 282.162 z M 442.852 249.833 C 442.76599999999996 258.785 435.354 266.041 426.385 265.955 C 417.432 265.868 410.176 258.455 410.262 249.486 C 410.35 240.534 417.762 233.278 426.731 233.36499999999998 C 435.682 233.451 442.939 240.864 442.852 249.833 z M 442.945 314.916 C 442.935 324.167 435.623 331.368 426.33 331.279 C 417.277 331.193 410.15999999999997 323.965 410.16999999999996 314.868 C 410.17999999999995 305.617 417.49199999999996 298.416 426.78499999999997 298.504 C 435.836 298.591 442.955 305.819 442.945 314.916 z M 311.049 347.321 C 311.195 337.637 319.29699999999997 329.706 328.895 329.84900000000005 C 338.579 329.99500000000006 346.51 338.09600000000006 346.368 347.69500000000005 C 346.222 357.3790000000001 338.12 365.31100000000004 328.522 365.16700000000003 C 318.838 365.022 310.904 356.92 311.049 347.321 z M 415.236 53.958 C 415.238 47.742 420.568 42.507999999999996 426.763 42.64 C 432.837 42.769 437.878 47.905 437.878 53.963 C 437.876 60.179 432.546 65.413 426.351 65.281 C 420.277 65.151 415.236 60.015 415.236 53.958 z M 343.363 314.961 C 343.335 304.898 351.384 296.877 361.459 296.93100000000004 C 371.33 296.98400000000004 379.258 304.94100000000003 379.285 314.82300000000004 C 379.314 324.886 371.264 332.908 361.189 332.85400000000004 C 351.318 332.801 343.391 324.844 343.363 314.961 z M 410.842 347.525 C 410.83 356.71 403.102 364.42199999999997 393.924 364.40999999999997 C 384.73999999999995 364.397 377.02799999999996 356.66799999999995 377.039 347.491 C 377.053 338.306 384.781 330.59499999999997 393.959 330.60699999999997 C 403.143 330.62 410.855 338.349 410.842 347.525 z M 179.458 380.26 C 179.386 387.752 173.187 393.92 165.694 393.957 C 158.042 393.995 151.72 387.643 151.79399999999998 379.99 C 151.86499999999998 372.499 158.064 366.33 165.557 366.293 C 173.208 366.256 179.531 372.607 179.458 380.26 z M 176.097 510.646 C 176.061 516.235 171.261 521.033 165.673 521.064 C 159.942 521.096 154.981 516.0369999999999 155.153 510.335 C 155.322 504.731 160.224 500.02 165.78 500.12 C 171.374 500.221 176.133 505.076 176.097 510.646 z M 178.051 445.214 C 178.11599999999999 452.199 172.81 457.675 165.87099999999998 457.784 C 158.70999999999998 457.896 153.171 452.43899999999996 153.2 445.299 C 153.22699999999998 438.33099999999996 158.613 432.952 165.583 432.933 C 172.56 432.913 177.986 438.258 178.051 445.214 z M 445.406 151.7 C 445.476 144.22299999999998 451.83 137.97 459.283 138.041 C 466.76 138.112 473.01300000000003 144.466 472.94300000000004 151.91899999999998 C 472.87100000000004 159.39499999999998 466.51700000000005 165.64799999999997 459.064 165.57799999999997 C 451.588 165.506 445.335 159.152 445.406 151.7 z M 242.71 510.517 C 242.75900000000001 517.068 237.388 522.46 230.832 522.444 C 224.266 522.4259999999999 218.92499999999998 517.015 219.007 510.46399999999994 C 219.088 504.05099999999993 224.26600000000002 498.85099999999994 230.68200000000002 498.73999999999995 C 237.228 498.627 242.661 503.946 242.71 510.517 z M 210.5 478.18 C 210.404 485.068 204.777 490.422 197.834 490.23 C 191.124 490.04400000000004 185.892 484.54200000000003 185.985 477.77000000000004 C 186.08 470.88200000000006 191.70700000000002 465.52900000000005 198.65 465.72 C 205.361 465.905 210.592 471.406 210.5 478.18 z M 244.74 445.346 C 244.746 453.105 238.536 459.28000000000003 230.769 459.241 C 223.18200000000002 459.202 217.07 453.145 216.977 445.575 C 216.881 437.80199999999996 223.008 431.52799999999996 230.744 431.477 C 238.513 431.426 244.735 437.591 244.74 445.346 z M 212.264 412.666 C 212.297 420.659 206.115 426.818 198.115 426.764 C 190.30700000000002 426.71000000000004 184.25300000000001 420.63300000000004 184.22 412.818 C 184.187 404.825 190.37 398.66499999999996 198.369 398.71999999999997 C 206.176 398.773 212.231 404.851 212.264 412.666 z M 344.539 412.683 C 344.574 421.459 337.652 428.478 328.86899999999997 428.573 C 319.93699999999995 428.66999999999996 312.791 421.529 312.87699999999995 412.59799999999996 C 312.96299999999997 403.81199999999995 319.97299999999996 396.88499999999993 328.751 396.91099999999994 C 337.535 396.938 344.502 403.897 344.539 412.683 z M 276.843 478.503 C 276.547 486.025 270.374 491.685 262.845 491.335 C 255.32400000000004 490.98499999999996 249.71700000000004 484.77299999999997 250.12300000000002 477.243 C 250.52 469.889 256.54 464.364 263.90200000000004 464.598 C 271.418 464.839 277.139 470.986 276.843 478.503 z M 278.14 314.151 C 278.44 304.373 286.661 296.716 296.628 296.935 C 306.59299999999996 297.153 314.353 305.486 314.043 315.632 C 313.742 325.411 305.522 333.067 295.55400000000003 332.849 C 285.589 332.631 277.829 324.298 278.14 314.151 z M 278.269 249.381 C 278.454 239.77100000000002 286.483 231.855 296.065 231.837 C 305.799 231.81799999999998 313.965 240.005 313.914 249.73399999999998 C 313.863 259.477 305.625 267.59999999999997 295.91499999999996 267.48199999999997 C 286.165 267.362 278.083 259.072 278.269 249.381 z M 278.884 412.987 C 278.731 421.31300000000005 271.736 428.177 263.432 428.151 C 254.961 428.124 247.90900000000002 420.94 248.06500000000003 412.49600000000004 C 248.21800000000002 404.17 255.21200000000002 397.30500000000006 263.51700000000005 397.33200000000005 C 271.987 397.359 279.04 404.545 278.884 412.987 z M 377.859 380.268 C 377.791 389.53 370.466 396.72799999999995 361.181 396.65999999999997 C 351.919 396.59299999999996 344.722 389.26899999999995 344.788 379.98299999999995 C 344.856 370.7219999999999 352.181 363.52299999999997 361.466 363.59099999999995 C 370.729 363.658 377.928 370.982 377.859 380.268 z M 279.848 184.216 C 279.97200000000004 175.315 287.527 167.99800000000002 296.403 168.183 C 305.154 168.36499999999998 312.338 175.69299999999998 312.33500000000004 184.433 C 312.33000000000004 193.33499999999998 304.879 200.733 295.98300000000006 200.66899999999998 C 287.084 200.605 279.724 193.1 279.848 184.216 z M 312.626 380.171 C 312.604 389.443 305.322 396.683 296.04499999999996 396.659 C 286.77299999999997 396.637 279.53299999999996 389.35699999999997 279.556 380.079 C 279.579 370.807 286.859 363.567 296.137 363.59000000000003 C 305.412 363.613 312.648 370.891 312.626 380.171 z M 310.801 445.465 C 310.756 453.63599999999997 304.186 460.11199999999997 295.985 460.068 C 287.814 460.02299999999997 281.338 453.453 281.382 445.253 C 281.427 437.08099999999996 287.997 430.606 296.197 430.65 C 304.369 430.693 310.846 437.265 310.801 445.465 z M 379.094 152.054 C 378.989 143.596 385.477 136.981 393.901 136.962 C 402.172 136.944 408.684 143.32999999999998 408.788 151.564 C 408.89500000000004 160.022 402.40500000000003 166.637 393.983 166.656 C 385.709 166.674 379.197 160.288 379.094 152.054 z M 410.393 217.155 C 410.34599999999995 226.426 403.04699999999997 233.582 393.727 233.494 C 384.645 233.408 377.52799999999996 226.236 377.491 217.133 C 377.452 207.83700000000002 384.669 200.586 393.952 200.591 C 403.234 200.596 410.439 207.855 410.393 217.155 z M 381.064 86.73 C 380.95500000000004 79.738 386.982 73.665 393.99 73.7 C 400.861 73.73400000000001 406.711 79.536 406.818 86.422 C 406.925 93.414 400.9 99.488 393.89 99.453 C 387.02 99.418 381.172 93.618 381.064 86.73 z M 413.193 118.609 C 413.519 111.088 419.71299999999997 105.457 427.24199999999996 105.838 C 434.597 106.20899999999999 440.14599999999996 112.214 439.93699999999995 119.574 C 439.722 127.084 433.585 132.835 426.07399999999996 132.565 C 418.555 132.293 412.869 126.133 413.193 118.609 z M 411.32 184.183 C 411.506 175.816 418.65999999999997 168.933 426.902 169.19 C 435.131 169.447 441.822 176.312 441.793 184.465 C 441.764 192.784 434.697 199.768 426.416 199.662 C 418.074 199.555 411.139 192.443 411.32 184.183 z M 281.964 119.008 C 282.055 111.21 288.168 105.12599999999999 295.971 105.066 C 303.947 105.004 310.209 111.205 310.219 119.174 C 310.229 127.14500000000001 303.983 133.362 296.009 133.32 C 288.043 133.277 281.872 126.988 281.964 119.008 z M 313.299 151.556 C 313.457 143.229 320.455 136.36800000000002 328.758 136.4 C 337.229 136.433 344.27799999999996 143.622 344.11699999999996 152.06300000000002 C 343.95899999999995 160.389 336.95899999999995 167.251 328.65799999999996 167.21900000000002 C 320.188 167.186 313.137 159.997 313.299 151.556 z M 345.08 184.517 C 345.027 175.619 352.43399999999997 168.176 361.336 168.183 C 370.238 168.189 377.635 175.642 377.568 184.53799999999998 C 377.502 193.43599999999998 369.99399999999997 200.795 361.111 200.66899999999998 C 352.363 200.545 345.133 193.26 345.08 184.517 z M 347.197 119.244 C 347.17 111.269 353.4 105.039 361.376 105.066 C 369.186 105.092 375.328 111.145 375.45099999999996 118.938 C 375.578 126.92 369.43499999999995 133.242 361.47599999999994 133.32 C 353.5 133.398 347.225 127.211 347.197 119.244 z" stroke-linecap="round" />
</g>
</g>
</g>
<g transform="matrix(0.4106711934 0 0 0.4106711934 94.6992903545 143.8435814588)" id="Aj8yoetpueNt9Ws3V72pZ"  >
<g style=""   >
		<g transform="matrix(1 0 0 1 0 0)" id="6qMGcpZ1L5g9vdO3L1YdQ"  >
<path style="stroke: none; stroke-width: 1; stroke-dasharray: none; stroke-linecap: butt; stroke-dashoffset: 0; stroke-linejoin: miter; stroke-miterlimit: 4; fill: rgb(121,87,164); fill-rule: nonzero; opacity: 1;"  transform=" translate(-300.000273646, -299.9995)" d="M 490.529 0 L 178.72899999999998 0 L 178.72899999999998 39.421 C 178.72899999999998 39.421 249.20299999999997 90.333 249.20399999999998 90.332 C 156.00199999999998 158.003 103.83999999999997 282.374 109.95299999999997 409.59 C 109.95299999999997 409.589 119.73199999999997 533.8059999999999 148.87599999999998 599.999 L 381.06899999999996 487.22 L 381.06899999999996 447.8 C 356.81699999999995 409.177 345.96 372.264 342.99699999999996 338.95500000000004 C 342.45199999999994 269.523 384.38599999999997 225.17500000000004 384.38599999999997 225.17500000000004 L 490.53099999999995 316.53400000000005 L 490.53099999999995 277.11300000000006 L 490.53099999999995 0 z M 473.783 240.603 L 381.97 161.58 C 381.97 161.58 351.312 196.81400000000002 332.90200000000004 259.194 C 324.23 288.577 323.48800000000006 319.03000000000003 327.18300000000005 348.749 C 331.07900000000006 380.079 341.25000000000006 410.915 357.46600000000007 440.64500000000004 L 157.02600000000007 538.0020000000001 C 141.13900000000007 500.6500000000001 131.54600000000008 460.61300000000006 128.46700000000007 418.73900000000003 C 125.11300000000007 373.124 129.59800000000007 327.625 141.79700000000008 283.509 C 153.70600000000007 240.436 171.75200000000007 198.805 197.83200000000008 166.06100000000004 C 250.2220000000001 100.28500000000004 313.73500000000007 71.22900000000004 313.73500000000007 71.22900000000004 L 233.31000000000006 16.747000000000043 L 473.78200000000004 16.747000000000043 L 473.78200000000004 240.603 z" stroke-linecap="round" />
</g>
		<g transform="matrix(1 0 0 1 0.5859710684 -22.625)" id="ZJcyPSUgDivgbr47P5mG9"  >
<path style="stroke: none; stroke-width: 1; stroke-dasharray: none; stroke-linecap: butt; stroke-dashoffset: 0; stroke-linejoin: miter; stroke-miterlimit: 4; fill: rgb(240,229,90); fill-rule: nonzero; opacity: 1;"  transform=" translate(-300.5862447144, -277.3745)" d="M 473.783 240.603 L 381.97 161.58 C 381.97 161.58 351.312 196.81400000000002 332.90200000000004 259.194 C 324.23 288.577 323.48800000000006 319.03000000000003 327.18300000000005 348.749 C 331.07900000000006 380.079 341.25000000000006 410.915 357.46600000000007 440.64500000000004 L 157.02600000000007 538.0020000000001 C 141.13900000000007 500.6500000000001 131.54600000000008 460.61300000000006 128.46700000000007 418.73900000000003 C 125.11300000000007 373.124 129.59800000000007 327.625 141.79700000000008 283.509 C 153.70600000000007 240.436 171.75200000000007 198.805 197.83200000000008 166.06100000000004 C 250.2220000000001 100.28500000000004 313.73500000000007 71.22900000000004 313.73500000000007 71.22900000000004 L 233.31000000000006 16.747000000000043 L 473.78200000000004 16.747000000000043 L 473.78200000000004 240.603 z" stroke-linecap="round" />
</g>
		<g transform="matrix(1 0 0 1 -1.6270999824 -33.3407809596)" id="H0M2AmWkketDhKxZFoGiP"  >
<path style="stroke: none; stroke-width: 1; stroke-dasharray: none; stroke-linecap: butt; stroke-dashoffset: 0; stroke-linejoin: miter; stroke-miterlimit: 4; fill: rgb(240,164,90); fill-rule: nonzero; opacity: 1;"  transform=" translate(-298.3731736636, -266.6587190404)" d="M 307.085 442.255 C 307.077 449.832 300.75399999999996 456.053 293.17699999999996 455.937 C 285.76199999999994 455.824 279.68899999999996 449.649 279.69599999999997 442.231 C 279.703 434.654 286.027 428.433 293.604 428.549 C 301.018 428.662 307.092 434.837 307.085 442.255 z M 293.432 361.987 C 284.742 361.961 277.802 368.819 277.71700000000004 377.516 C 277.63200000000006 386.35900000000004 284.708 393.427 293.55000000000007 393.332 C 302.24700000000007 393.238 309.09800000000007 386.29 309.06300000000005 377.601 C 309.027 368.904 302.129 362.013 293.432 361.987 z M 293.575 295.594 C 284.072 295.452 276.051 303.304 275.908 312.891 C 275.76500000000004 322.394 283.618 330.415 293.20500000000004 330.559 C 302.708 330.702 310.72800000000007 322.848 310.87300000000005 313.261 C 311.015 303.759 303.162 295.738 293.575 295.594 z M 261.145 328.998 C 251.95899999999997 328.976 244.75199999999998 336.144 244.72899999999998 345.323 C 244.707 354.50899999999996 251.874 361.716 261.053 361.738 C 270.239 361.76 277.446 354.593 277.469 345.414 C 277.491 336.227 270.326 329.021 261.145 328.998 z M 469.232 216.122 C 469.175 208.33 462.533 201.76100000000002 454.76500000000004 201.817 C 448.31800000000004 201.864 442.72 206.424 441.009 212.394 L 460.65 229.3 C 465.68 226.999 469.273 221.872 469.232 216.122 z M 325.439 329.015 C 316.43 329.147 309.37600000000003 336.188 309.31 345.228 C 309.244 354.42 316.371 361.671 325.54 361.73900000000003 C 326.77000000000004 361.74800000000005 327.96000000000004 361.619 329.108 361.38300000000004 C 328.356 357.182 327.708 352.97100000000006 327.182 348.75000000000006 C 326.369 342.2 325.785 335.615 325.439 329.015 z M 311.119 409.924 C 311.107 418.032 317.55300000000005 424.50199999999995 325.65400000000005 424.51399999999995 C 333.7610000000001 424.52599999999995 340.23100000000005 418.0799999999999 340.24300000000005 409.9789999999999 C 340.25600000000003 401.87199999999996 333.809 395.40099999999995 325.70900000000006 395.38899999999995 C 317.602 395.377 311.131 401.823 311.119 409.924 z M 358.014 134.027 C 366.35200000000003 134.009 372.778 127.45899999999999 372.672 119.08599999999998 C 372.56800000000004 110.93399999999998 366.12300000000005 104.61099999999999 357.932 104.62899999999999 C 349.594 104.64699999999999 343.168 111.196 343.274 119.57 C 343.377 127.723 349.822 134.045 358.014 134.027 z M 196.521 330.014 C 188.015 330.012 181.16299999999998 336.85900000000004 181.161 345.36400000000003 C 181.159 353.87100000000004 188.006 360.72200000000004 196.511 360.72400000000005 C 205.018 360.72600000000006 211.869 353.879 211.87099999999998 345.37300000000005 C 211.87299999999996 336.8670000000001 205.026 330.016 196.521 330.014 z M 261.204 395.389 C 253.085 395.345 246.58 401.75600000000003 246.537 409.846 C 246.493 417.96500000000003 252.904 424.47 260.994 424.514 C 269.11300000000006 424.558 275.61800000000005 418.147 275.66200000000003 410.057 C 275.705 401.938 269.294 395.433 261.204 395.389 z M 228.715 296.344 C 219.606 296.415 212.00400000000002 304.1 212.074 313.169 C 212.145 322.279 219.83 329.88 228.899 329.81 C 238.00900000000001 329.74 245.61 322.054 245.54 312.986 C 245.469 303.875 237.783 296.274 228.715 296.344 z M 196.341 462.801 C 189.989 462.90999999999997 184.86200000000002 468.058 184.782 474.407 C 184.70100000000002 480.893 189.989 486.25 196.49 486.267 C 202.98000000000002 486.28499999999997 208.298 480.94599999999997 208.25 474.459 C 208.201 467.956 202.822 462.689 196.341 462.801 z M 229.229 429 C 221.942 428.768 215.98100000000002 434.238 215.58800000000002 441.519 C 215.18600000000004 448.974 220.73800000000003 455.123 228.18400000000003 455.47 C 235.63700000000003 455.81600000000003 241.74800000000002 450.21400000000006 242.04200000000003 442.766 C 242.334 435.323 236.67 429.238 229.229 429 z M 228.849 362.404 C 220.628 362.377 213.70299999999997 369.173 213.551 377.417 C 213.397 385.77599999999995 220.378 392.88899999999995 228.765 392.916 C 236.986 392.942 243.911 386.146 244.063 377.902 C 244.217 369.545 237.235 362.432 228.849 362.404 z M 357.924 67.494 C 364.863 67.529 370.828 61.515 370.721 54.594 C 370.615 47.777 364.825 42.033 358.022 41.999 C 351.084 41.964000000000006 345.118 47.978 345.22499999999997 54.899 C 345.332 61.717 351.121 67.459 357.924 67.494 z M 211.6 151.718 C 211.605 151.12599999999998 211.561 150.54399999999998 211.49599999999998 149.96699999999998 C 206.89199999999997 155.06799999999998 202.32099999999997 160.426 197.83299999999997 166.06099999999998 C 197.67399999999998 166.26 197.52399999999997 166.46899999999997 197.36699999999996 166.66799999999998 C 205.097 166.241 211.529 159.617 211.6 151.718 z M 251.144 28.828 L 258.982 34.137 C 259.65500000000003 34.265 260.34200000000004 34.345 261.04400000000004 34.35 C 267.41600000000005 34.389 272.88500000000005 29.016000000000002 272.994 22.611 C 273.03000000000003 20.508 272.461 18.504 271.46400000000006 16.748 L 250.73400000000007 16.748 C 249.75700000000006 18.471 249.19300000000007 20.438000000000002 249.20400000000006 22.501 C 249.215 24.806 249.937 26.981 251.144 28.828 z M 325.557 34.35 C 331.91700000000003 34.436 337.418 29.095000000000002 337.577 22.679000000000002 C 337.63 20.555000000000003 337.057 18.524 336.048 16.747 L 315.318 16.747 C 314.353 18.448999999999998 313.794 20.39 313.789 22.431 C 313.77 28.809 319.156 34.262 325.557 34.35 z M 228.961 495.895 C 222.93300000000002 495.798 217.911 500.727 217.877 506.772 C 217.87400000000002 507.32099999999997 217.925 507.85699999999997 218.002 508.385 L 236.704 499.301 C 234.746 497.247 232.006 495.944 228.961 495.895 z M 261.016 462.232 C 254.122 462.269 248.80400000000003 467.61600000000004 248.79600000000002 474.51500000000004 C 248.78900000000002 481.42 254.09000000000003 486.78200000000004 260.97900000000004 486.83500000000004 C 261.516 486.83900000000006 262.04 486.80100000000004 262.55600000000004 486.74300000000005 L 269.997 483.1290000000001 C 272.151 480.8960000000001 273.442 477.8190000000001 273.40000000000003 474.35100000000006 C 273.319 467.472 267.926 462.194 261.016 462.232 z M 405.348 151.659 C 405.377 143.588 398.752 136.791 390.606 136.536 C 382.44599999999997 136.281 375.364 143.096 375.18 151.379 C 375.076 156.027 377.254 160.304 380.668 163.153 C 381.50600000000003 162.114 381.971 161.57899999999998 381.971 161.57899999999998 L 387.615 166.43699999999998 C 388.434 166.58999999999997 389.269 166.69199999999998 390.12600000000003 166.70399999999998 C 398.322 166.81 405.318 159.896 405.348 151.659 z M 422.447 132.959 C 429.826 133.029 436.115 126.83800000000001 436.187 119.437 C 436.257 112.059 430.06600000000003 105.768 422.664 105.698 C 415.28499999999997 105.627 408.996 111.81899999999999 408.924 119.22 C 408.854 126.598 415.045 132.889 422.447 132.959 z M 390.943 73.815 C 383.488 73.439 377.35499999999996 79.013 377.03299999999996 86.459 C 376.71099999999996 93.909 382.34 100.007 389.787 100.275 C 397.22299999999996 100.54400000000001 403.298 94.849 403.51 87.414 C 403.717 80.127 398.223 74.183 390.943 73.815 z M 422.477 66.479 C 428.96299999999997 66.529 434.30499999999995 61.214 434.28999999999996 54.723 C 434.27399999999994 48.223 428.919 42.933 422.433 43.012 C 415.928 43.092 410.681 48.496 410.824 54.97 C 410.963 61.327 416.131 66.43 422.477 66.479 z M 390.061 33.662 C 396.19399999999996 33.793 401.471 28.610999999999997 401.47299999999996 22.456 C 401.47299999999996 20.387 400.86799999999994 18.433 399.842 16.747 L 380.69 16.747 C 379.665 18.431 379.057 20.384 379.056 22.453 C 379.055 28.45 384.047 33.534 390.061 33.662 z M 454.076 99.016 C 460.492 99.516 466.38500000000005 94.292 466.83000000000004 87.709 C 467.266 81.278 461.992 75.427 455.41800000000006 75.048 C 448.9750000000001 74.677 443.16400000000004 80.003 442.8520000000001 86.56700000000001 C 442.552 92.865 447.646 98.515 454.076 99.016 z M 454.822 165.043 C 462.101 165.06 468.18 159.047 468.269 151.744 C 468.357 144.485 462.389 138.359 455.072 138.197 C 447.828 138.037 441.658 143.958 441.424 151.294 C 441.189 158.668 447.385 165.025 454.822 165.043 z M 454.82 32.125 C 460.14 32.139 464.55899999999997 27.698 464.517 22.378999999999998 C 464.501 20.284999999999997 463.78499999999997 18.336999999999996 462.605 16.746 L 447.084 16.746 C 445.91700000000003 18.32 445.20300000000003 20.246 445.176 22.326999999999998 C 445.105 27.647 449.501 32.111 454.82 32.125 z M 196.403 396.208 C 188.744 396.25800000000004 182.678 402.47 182.773 410.165 C 182.865 417.66 188.917 423.656 196.428 423.694 C 204.118 423.73400000000004 210.265 417.62 210.26 409.939 C 210.253 402.262 204.094 396.157 196.403 396.208 z M 164.35 363.777 C 156.43099999999998 363.722 150.309 369.82099999999997 150.34199999999998 377.735 C 150.374 385.47200000000004 156.368 391.48900000000003 164.09799999999998 391.54200000000003 C 172.01799999999997 391.59700000000004 178.13899999999998 385.49800000000005 178.106 377.58500000000004 C 178.074 369.848 172.08 363.831 164.35 363.777 z M 139.266 293.178 C 143.446 290.662 146.32399999999998 286.11 146.392 280.956 C 146.426 278.41200000000003 145.757 275.998 144.582 273.885 C 143.623 277.084 142.68699999999998 280.28999999999996 141.797 283.509 C 140.909 286.724 140.073 289.949 139.266 293.178 z M 325.77 198.558 C 316.301 198.499 308.298 206.286 308.03999999999996 215.81199999999998 C 307.77799999999996 225.39499999999998 315.722 233.65099999999998 325.39199999999994 233.84799999999998 C 334.98599999999993 234.04299999999998 343.19899999999996 226.04799999999997 343.3279999999999 216.392 C 343.453 206.782 335.417 198.618 325.77 198.558 z M 164.065 297.896 C 155.817 298.01 148.93 305.04200000000003 149.043 313.237 C 149.157 321.485 156.19 328.372 164.383 328.259 C 172.631 328.14500000000004 179.519 321.112 179.405 312.918 C 179.292 304.67 172.259 297.783 164.065 297.896 z M 325.691 135.539 C 316.878 135.533 309.546 142.90099999999998 309.599 151.70999999999998 C 309.651 160.36599999999999 316.808 167.57899999999998 325.46799999999996 167.70199999999997 C 334.263 167.82699999999997 341.69699999999995 160.54099999999997 341.76099999999997 151.73199999999997 C 341.828 142.924 334.506 135.545 325.691 135.539 z M 163.847 263.901 C 172.63500000000002 264.052 179.601 257.286 179.632 248.56900000000002 C 179.661 239.98200000000003 172.945 233.15500000000003 164.4 233.08700000000002 C 162.38500000000002 233.07100000000003 160.472 233.437 158.71200000000002 234.098 C 155.77700000000002 241.143 153.05100000000002 248.318 150.51700000000002 255.585 C 153.002 260.47 157.978 263.8 163.847 263.901 z M 164.628 430.11 C 157.753 429.92 152.183 435.22 152.089 442.04 C 151.99699999999999 448.744 157.177 454.19100000000003 163.82 454.375 C 170.694 454.565 176.265 449.265 176.35899999999998 442.445 C 176.452 435.74 171.272 430.294 164.628 430.11 z M 164.623 497.085 C 159.004 496.89599999999996 154.527 501.152 154.481 506.72999999999996 C 154.436 512.169 158.618 516.48 164.028 516.5699999999999 C 169.47199999999998 516.66 173.834 512.515 173.968 507.1239999999999 C 174.104 501.672 170.002 497.267 164.623 497.085 z M 196.374 264.562 C 187.397 264.616 180.315 271.735 180.292 280.72700000000003 C 180.269 289.901 187.47 297.06500000000005 196.65800000000002 297.01000000000005 C 205.63500000000002 296.9560000000001 212.717 289.83700000000005 212.74 280.845 C 212.763 271.67 205.562 264.506 196.374 264.562 z M 357.984 167.624 C 348.793 167.619 341.647 174.798 341.68399999999997 184.001 C 341.71999999999997 192.728 348.33399999999995 199.642 356.917 200.149 C 362.39 189.844 367.589 181.503 371.823 175.244 C 368.985 170.638 363.92 167.627 357.984 167.624 z M 437.354 183.807 C 437.301 175.528 430.739 169.059 422.452 169.113 C 414.252 169.167 407.836 175.608 407.768 183.783 L 424.885 198.516 C 432.066 197.418 437.404 191.333 437.354 183.807 z M 132 359.063 C 139.419 359.027 145.556 352.919 145.627 345.502 C 145.699 337.926 139.44 331.637 131.865 331.67400000000004 C 131.788 331.675 131.71300000000002 331.68600000000004 131.637 331.68800000000005 C 130.319 340.63400000000007 129.296 349.61600000000004 128.594 358.62600000000003 C 129.687 358.905 130.825 359.068 132 359.063 z M 142.301 474.588 C 142.331 469.927 138.96499999999997 465.78200000000004 134.57899999999998 464.548 C 135.75199999999998 470.555 137.07799999999997 476.51 138.534 482.418 C 140.797 480.502 142.281 477.668 142.301 474.588 z M 144.235 409.809 C 144.17100000000002 402.922 138.798 397.63000000000005 131.89100000000002 397.65000000000003 C 130.336 397.65400000000005 128.86700000000002 397.94100000000003 127.51400000000002 398.44100000000003 C 127.66600000000003 405.20300000000003 127.97000000000003 411.96900000000005 128.46800000000002 418.74 C 128.544 419.776 128.64200000000002 420.806 128.727 421.841 C 129.81900000000002 422.121 130.972 422.273 132.177 422.254 C 139.046 422.146 144.299 416.724 144.235 409.809 z M 352.114 430.329 C 347.91999999999996 432.356 344.989 436.536 344.748 441.601 C 344.666 443.325 344.914 444.971 345.417 446.497 L 357.467 440.64300000000003 C 355.6 437.221 353.822 433.781 352.114 430.329 z M 293.583 166.899 C 283.988 166.825 276.375 174.357 276.37800000000004 183.92000000000002 C 276.38100000000003 193.323 283.82800000000003 200.85100000000003 293.19700000000006 200.923 C 302.7920000000001 200.997 310.4050000000001 193.465 310.40200000000004 183.902 C 310.398 174.5 302.952 166.972 293.583 166.899 z M 277.18 151.627 C 277.184 142.97400000000002 270.072 135.71900000000002 261.407 135.53900000000002 C 252.61899999999997 135.35600000000002 245.14 142.60100000000003 245.017 151.413 C 244.894 160.208 252.18099999999998 167.639 260.991 167.703 C 269.799 167.765 277.176 160.44 277.18 151.627 z M 260.567 298.563 C 270.434 298.779 278.574 291.199 278.871 281.518 C 279.18 271.47299999999996 271.496 263.22299999999996 261.63 263.00699999999995 C 251.763 262.79099999999994 243.623 270.3709999999999 243.326 280.05199999999996 C 243.018 290.098 250.702 298.348 260.567 298.563 z M 228.958 231.355 C 219.31799999999998 231.289 211.734 238.73999999999998 211.668 248.343 C 211.601 257.983 219.053 265.567 228.655 265.633 C 238.29500000000002 265.69899999999996 245.879 258.248 245.945 248.646 C 246.012 239.005 238.561 231.421 228.958 231.355 z M 196.391 200.07 C 187.52499999999998 200.132 180.321 207.447 180.38299999999998 216.327 C 180.445 225.194 187.76 232.397 196.64 232.335 C 205.50599999999997 232.273 212.70999999999998 224.958 212.648 216.078 C 212.586 207.212 205.271 200.008 196.391 200.07 z M 293.704 230.12 C 283.714 229.88 275.103 238.29500000000002 275.016 248.382 C 274.932 258.269 283.09900000000005 266.628 293.077 266.868 C 303.067 267.108 311.677 258.693 311.764 248.606 C 311.848 238.72 303.681 230.36 293.704 230.12 z M 260.924 233.848 C 270.537 233.966 278.69399999999996 225.923 278.743 216.27700000000002 C 278.793 206.645 270.71 198.54000000000002 261.072 198.55800000000002 C 251.586 198.57600000000002 243.637 206.413 243.454 215.92800000000003 C 243.269 225.521 251.271 233.729 260.924 233.848 z M 307.898 280.854 C 307.925 290.637 315.77500000000003 298.515 325.547 298.568 C 325.61800000000005 298.568 325.687 298.55899999999997 325.759 298.55899999999997 C 326.66900000000004 286.96399999999994 328.54200000000003 275.41099999999994 331.56600000000003 264.00199999999995 C 329.76300000000003 263.37499999999994 327.83500000000004 263.01399999999995 325.814 263.00299999999993 C 315.842 262.95 307.871 270.892 307.898 280.854 z M 228.475 134.027 C 236.7 134.16899999999998 243.26999999999998 127.97299999999998 243.49699999999999 119.862 C 243.50799999999998 119.472 243.49499999999998 119.08999999999999 243.47799999999998 118.708 C 238.04099999999997 123.406 232.498 128.475 226.927 133.917 C 227.436 133.978 227.95 134.018 228.475 134.027 z M 212.52 183.622 C 212.401 192.85000000000002 219.46300000000002 200.122 228.619 200.199 C 237.843 200.27700000000002 245.058 193.18300000000002 245.095 184 C 245.131 174.956 238.166 167.782 229.198 167.625 C 219.96 167.464 212.638 174.488 212.52 183.622 z M 267.985 99.261 C 268.926 98.73899999999999 269.79200000000003 98.10799999999999 270.57800000000003 97.39 C 269.722 98.002 268.856 98.626 267.985 99.261 z M 293.44 104.073 C 285.21999999999997 104.041 278.292 110.83399999999999 278.134 119.07799999999999 C 277.975 127.43399999999998 284.954 134.552 293.34000000000003 134.58499999999998 C 301.55800000000005 134.617 308.48800000000006 127.82399999999998 308.646 119.57999999999998 C 308.805 111.223 301.826 104.105 293.44 104.073 z M 325.833 101.023 C 333.711 100.946 339.793 94.687 339.668 86.785 C 339.545 79.07 333.464 73.077 325.731 73.051 C 317.835 73.024 311.668 79.19200000000001 311.695 87.087 C 311.721 94.976 317.935 101.101 325.833 101.023 z M 293.291 41.722 C 287.937 41.752 283.48 44.849000000000004 281.489 49.385000000000005 L 302.81199999999995 63.82900000000001 C 305.06999999999994 61.479000000000006 306.43299999999994 58.25900000000001 306.41399999999993 54.647000000000006 C 306.373 47.338 300.628 41.68 293.291 41.722 z" stroke-linecap="round" />
</g>
</g>
</g>
</svg>