<svg xmlns="http://www.w3.org/2000/svg" width="24" height="24" viewBox="0 0 24 24" fill="none">
<path d="M12.3815 4C13.2627 4 14.1065 4 14.9752 4C15.0252 5.0892 15.394 6.04069 16.169 6.81064C16.944 7.58059 17.8815 7.9687 19.0002 8C19.0002 8.85759 19.0002 9.71518 19.0002 10.5978C18.2815 10.5978 17.5752 10.5102 16.919 10.241C16.269 9.97809 15.6502 9.64632 14.994 9.33959C14.994 9.41471 14.994 9.52739 14.994 9.6338C15.0002 11.3991 15.0065 13.1581 15.0065 14.9233C15.0065 17.4335 13.369 19.4241 10.9065 19.9124C8.26896 20.4319 5.58146 18.6228 5.08771 15.9875C4.57521 13.252 6.38771 10.6166 9.10646 10.1784C9.57521 10.1033 10.0565 10.1283 10.5377 10.1221C10.6127 10.1221 10.7502 10.241 10.7502 10.3036C10.7627 11.1174 10.7627 11.9249 10.7627 12.7074C10.369 12.7074 9.99396 12.6573 9.63146 12.7136C8.37521 12.9202 7.52521 14.0407 7.65646 15.2676C7.78771 16.507 8.85021 17.4397 10.094 17.3959C11.369 17.3521 12.3565 16.3443 12.3752 15.0423C12.394 13.759 12.3815 12.4757 12.3815 11.1925C12.3815 8.92645 12.3815 6.66667 12.3815 4.40063C12.3815 4.28169 12.3815 4.15649 12.3815 4Z" fill="#292929"/>
</svg>