<svg xmlns="http://www.w3.org/2000/svg" width="24" height="24" viewBox="0 0 24 24" fill="none">
<path fill-rule="evenodd" clip-rule="evenodd" d="M3.15965 18.5864C2.78522 18.478 2.44357 18.2853 2.16355 18.0245C1.88353 17.7637 1.67334 17.4424 1.55072 17.0878C0.850061 15.2549 0.642457 7.60113 1.99188 6.0902C2.44099 5.59869 3.07508 5.29607 3.75651 5.24804C7.37659 4.8765 18.5612 4.92604 19.8458 5.37189C20.2071 5.48377 20.5372 5.67224 20.8113 5.92318C21.0854 6.17412 21.2965 6.48103 21.4287 6.8209C22.1943 8.71576 22.2202 15.6016 21.3249 17.4222C21.0875 17.8961 20.6899 18.28 20.1961 18.5121C18.8467 19.1561 4.95023 19.1437 3.15965 18.5864ZM8.90767 14.9948L15.3953 11.7748L8.90767 8.52999V14.9948Z" fill="#FF0000"/>
</svg>